<svg xmlns="http://www.w3.org/2000/svg" xmlns:xlink="http://www.w3.org/1999/xlink" style="margin:auto;background:#f1f2f3;display:block;z-index:1;position:relative" width="1366" height="625" preserveAspectRatio="xMidYMid" viewBox="0 0 1366 625">
<g transform="translate(683,312.5) scale(1,1) translate(-683,-312.5)"><defs>
  <linearGradient id="ldbk-photon-yvhv8jrcez-lg" x1="658" x2="1366" y1="0" y2="0" gradientUnits="userSpaceOnUse">
    <stop stop-color="#f22283" offset="0"></stop>
    <stop stop-color="#c32361" offset="1"></stop>
  </linearGradient>
  <mask id="ldbk-photon-yvhv8jrcez-mask">
  <g><path d="M1666 -0.5 L681.9618735824744 -0.5 A15 15 0 0 1 681.9618735824744 30.5 L1666 30.5" fill="#fff">
  <animateTransform attributeName="transform" type="translate" dur="9.090909090909092s" repeatCount="indefinite" keyTimes="0;0.5;1" calcMode="spline" keySplines="0.5 0 0.5 1;0.5 0 0.5 1" values="47.96121382444977;0;47.96121382444977" begin="0s"></animateTransform>
</path><path d="M1421.473305413017 -0.5 L1446.946610826034 -0.5 A15 15 0 0 1 1446.946610826034 30.5 L1421.473305413017 30.5 A15 15 0 0 1 1421.473305413017 -0.5" fill="#000">
  <animateTransform attributeName="transform" type="translate" dur="4.545454545454546s" repeatCount="indefinite" keyTimes="0;1" values="0;-1641.312684485548" begin="0s"></animateTransform>
  <animate attributeName="opacity" dur="4.545454545454546s" repeatCount="indefinite" keyTimes="0;0.3;1" values="1;1;0" begin="0s"></animate>
</path><path d="M1666 29.5 L601.473288451926 29.5 A15 15 0 0 0 601.473288451926 60.5 L1666 60.5" fill="#fff">
  <animateTransform attributeName="transform" type="translate" dur="3.0303030303030307s" repeatCount="indefinite" keyTimes="0;0.5;1" calcMode="spline" keySplines="0.5 0 0.5 1;0.5 0 0.5 1" values="-26.087904924699107;0;-26.087904924699107" begin="-1.2987012987012987s"></animateTransform>
</path><path d="M749.2207521949549 29.5 L788.6541406771698 29.5 A15 15 0 0 1 788.6541406771698 60.5 L749.2207521949549 60.5 A15 15 0 0 1 749.2207521949549 29.5" fill="#fff">
  <animateTransform attributeName="transform" type="translate" dur="9.090909090909092s" repeatCount="indefinite" keyTimes="0;1" values="0;0" begin="-1.2987012987012987s"></animateTransform>
  <animate attributeName="opacity" dur="9.090909090909092s" repeatCount="indefinite" keyTimes="0;0.3;1" values="1;1;0" begin="-1.2987012987012987s"></animate>
</path><path d="M1666 59.5 L670.2360626273213 59.5 A15 15 0 0 1 670.2360626273213 90.5 L1666 90.5" fill="#fff">
  <animateTransform attributeName="transform" type="translate" dur="3.0303030303030307s" repeatCount="indefinite" keyTimes="0;0.5;1" calcMode="spline" keySplines="0.5 0 0.5 1;0.5 0 0.5 1" values="45.24252674387065;0;45.24252674387065" begin="-2.5974025974025974s"></animateTransform>
</path><path d="M1413.5007208491077 59.5 L1431.0014416982153 59.5 A15 15 0 0 1 1431.0014416982153 90.5 L1413.5007208491077 90.5 A15 15 0 0 1 1413.5007208491077 59.5" fill="#000">
  <animateTransform attributeName="transform" type="translate" dur="9.090909090909092s" repeatCount="indefinite" keyTimes="0;1" values="0;-1666.2111994719398" begin="-2.5974025974025974s"></animateTransform>
  <animate attributeName="opacity" dur="9.090909090909092s" repeatCount="indefinite" keyTimes="0;0.3;1" values="1;1;0" begin="-2.5974025974025974s"></animate>
</path><path d="M1666 89.5 L631.7154788294976 89.5 A15 15 0 0 0 631.7154788294976 120.5 L1666 120.5" fill="#fff">
  <animateTransform attributeName="transform" type="translate" dur="3.0303030303030307s" repeatCount="indefinite" keyTimes="0;0.5;1" calcMode="spline" keySplines="0.5 0 0.5 1;0.5 0 0.5 1" values="-35.55468306425494;0;-35.55468306425494" begin="-3.896103896103896s"></animateTransform>
</path><path d="M706.3689835557485 89.5 L742.7341047487924 89.5 A15 15 0 0 1 742.7341047487924 120.5 L706.3689835557485 120.5 A15 15 0 0 1 706.3689835557485 89.5" fill="#fff">
  <animateTransform attributeName="transform" type="translate" dur="9.090909090909092s" repeatCount="indefinite" keyTimes="0;1" values="0;0" begin="-3.896103896103896s"></animateTransform>
  <animate attributeName="opacity" dur="9.090909090909092s" repeatCount="indefinite" keyTimes="0;0.3;1" values="1;1;0" begin="-3.896103896103896s"></animate>
</path><path d="M1666 119.5 L657.7825700698751 119.5 A15 15 0 0 1 657.7825700698751 150.5 L1666 150.5" fill="#fff">
  <animateTransform attributeName="transform" type="translate" dur="9.090909090909092s" repeatCount="indefinite" keyTimes="0;0.5;1" calcMode="spline" keySplines="0.5 0 0.5 1;0.5 0 0.5 1" values="29.10059353732523;0;29.10059353732523" begin="-5.194805194805195s"></animateTransform>
</path><path d="M1427.9745608224337 119.5 L1459.9491216448673 119.5 A15 15 0 0 1 1459.9491216448673 150.5 L1427.9745608224337 150.5 A15 15 0 0 1 1427.9745608224337 119.5" fill="#000">
  <animateTransform attributeName="transform" type="translate" dur="9.090909090909092s" repeatCount="indefinite" keyTimes="0;1" values="0;-1054.3650970042904" begin="-5.194805194805195s"></animateTransform>
  <animate attributeName="opacity" dur="9.090909090909092s" repeatCount="indefinite" keyTimes="0;0.3;1" values="1;1;0" begin="-5.194805194805195s"></animate>
</path><path d="M1666 149.5 L582.8790009999472 149.5 A15 15 0 0 0 582.8790009999472 180.5 L1666 180.5" fill="#fff">
  <animateTransform attributeName="transform" type="translate" dur="3.0303030303030307s" repeatCount="indefinite" keyTimes="0;0.5;1" calcMode="spline" keySplines="0.5 0 0.5 1;0.5 0 0.5 1" values="-38.88509160111156;0;-38.88509160111156" begin="-6.4935064935064934s"></animateTransform>
</path><path d="M718.1323096824125 149.5 L735.557339769769 149.5 A15 15 0 0 1 735.557339769769 180.5 L718.1323096824125 180.5 A15 15 0 0 1 718.1323096824125 149.5" fill="#fff">
  <animateTransform attributeName="transform" type="translate" dur="9.090909090909092s" repeatCount="indefinite" keyTimes="0;1" values="0;0" begin="-6.4935064935064934s"></animateTransform>
  <animate attributeName="opacity" dur="9.090909090909092s" repeatCount="indefinite" keyTimes="0;0.3;1" values="1;1;0" begin="-6.4935064935064934s"></animate>
</path><path d="M1666 179.5 L610.4681522463924 179.5 A15 15 0 0 1 610.4681522463924 210.5 L1666 210.5" fill="#fff">
  <animateTransform attributeName="transform" type="translate" dur="3.0303030303030307s" repeatCount="indefinite" keyTimes="0;0.5;1" calcMode="spline" keySplines="0.5 0 0.5 1;0.5 0 0.5 1" values="35.60992398975144;0;35.60992398975144" begin="-7.792207792207792s"></animateTransform>
</path><path d="M1409.8947690726823 179.5 L1423.7895381453645 179.5 A15 15 0 0 1 1423.7895381453645 210.5 L1409.8947690726823 210.5 A15 15 0 0 1 1409.8947690726823 179.5" fill="#000">
  <animateTransform attributeName="transform" type="translate" dur="9.090909090909092s" repeatCount="indefinite" keyTimes="0;1" values="0;-1277.631991152045" begin="-7.792207792207792s"></animateTransform>
  <animate attributeName="opacity" dur="9.090909090909092s" repeatCount="indefinite" keyTimes="0;0.3;1" values="1;1;0" begin="-7.792207792207792s"></animate>
</path><path d="M1666 209.5 L590.9972785790844 209.5 A15 15 0 0 0 590.9972785790844 240.5 L1666 240.5" fill="#fff">
  <animateTransform attributeName="transform" type="translate" dur="4.545454545454546s" repeatCount="indefinite" keyTimes="0;0.5;1" calcMode="spline" keySplines="0.5 0 0.5 1;0.5 0 0.5 1" values="-39.02159939140337;0;-39.02159939140337" begin="-9.090909090909092s"></animateTransform>
</path><path d="M737.7059196051605 209.5 L753.1867846664312 209.5 A15 15 0 0 1 753.1867846664312 240.5 L737.7059196051605 240.5 A15 15 0 0 1 737.7059196051605 209.5" fill="#fff">
  <animateTransform attributeName="transform" type="translate" dur="4.545454545454546s" repeatCount="indefinite" keyTimes="0;1" values="0;0" begin="-9.090909090909092s"></animateTransform>
  <animate attributeName="opacity" dur="4.545454545454546s" repeatCount="indefinite" keyTimes="0;0.3;1" values="1;1;0" begin="-9.090909090909092s"></animate>
</path><path d="M1666 239.5 L665.0854045597018 239.5 A15 15 0 0 1 665.0854045597018 270.5 L1666 270.5" fill="#fff">
  <animateTransform attributeName="transform" type="translate" dur="9.090909090909092s" repeatCount="indefinite" keyTimes="0;0.5;1" calcMode="spline" keySplines="0.5 0 0.5 1;0.5 0 0.5 1" values="44.229611422099396;0;44.229611422099396" begin="-10.38961038961039s"></animateTransform>
</path><path d="M1435.7040929299865 239.5 L1475.408185859973 239.5 A15 15 0 0 1 1475.408185859973 270.5 L1435.7040929299865 270.5 A15 15 0 0 1 1435.7040929299865 239.5" fill="#000">
  <animateTransform attributeName="transform" type="translate" dur="3.0303030303030307s" repeatCount="indefinite" keyTimes="0;1" values="0;-1262.1493148268808" begin="-10.38961038961039s"></animateTransform>
  <animate attributeName="opacity" dur="3.0303030303030307s" repeatCount="indefinite" keyTimes="0;0.3;1" values="1;1;0" begin="-10.38961038961039s"></animate>
</path><path d="M1666 269.5 L588.2227819850324 269.5 A15 15 0 0 0 588.2227819850324 300.5 L1666 300.5" fill="#fff">
  <animateTransform attributeName="transform" type="translate" dur="3.0303030303030307s" repeatCount="indefinite" keyTimes="0;0.5;1" calcMode="spline" keySplines="0.5 0 0.5 1;0.5 0 0.5 1" values="-37.39766879792808;0;-37.39766879792808" begin="-11.688311688311687s"></animateTransform>
</path><path d="M734.6151037112285 269.5 L767.6010119673008 269.5 A15 15 0 0 1 767.6010119673008 300.5 L734.6151037112285 300.5 A15 15 0 0 1 734.6151037112285 269.5" fill="#fff">
  <animateTransform attributeName="transform" type="translate" dur="4.545454545454546s" repeatCount="indefinite" keyTimes="0;1" values="0;0" begin="-11.688311688311687s"></animateTransform>
  <animate attributeName="opacity" dur="4.545454545454546s" repeatCount="indefinite" keyTimes="0;0.3;1" values="1;1;0" begin="-11.688311688311687s"></animate>
</path><path d="M1666 299.5 L658.930226021506 299.5 A15 15 0 0 1 658.930226021506 330.5 L1666 330.5" fill="#fff">
  <animateTransform attributeName="transform" type="translate" dur="3.0303030303030307s" repeatCount="indefinite" keyTimes="0;0.5;1" calcMode="spline" keySplines="0.5 0 0.5 1;0.5 0 0.5 1" values="48.260235716930346;0;48.260235716930346" begin="-12.987012987012987s"></animateTransform>
</path><path d="M1430.9229548974458 299.5 L1465.8459097948917 299.5 A15 15 0 0 1 1465.8459097948917 330.5 L1430.9229548974458 330.5 A15 15 0 0 1 1430.9229548974458 299.5" fill="#000">
  <animateTransform attributeName="transform" type="translate" dur="9.090909090909092s" repeatCount="indefinite" keyTimes="0;1" values="0;-1504.406867648434" begin="-12.987012987012987s"></animateTransform>
  <animate attributeName="opacity" dur="9.090909090909092s" repeatCount="indefinite" keyTimes="0;0.3;1" values="1;1;0" begin="-12.987012987012987s"></animate>
</path><path d="M1666 329.5 L634.7971978220523 329.5 A15 15 0 0 0 634.7971978220523 360.5 L1666 360.5" fill="#fff">
  <animateTransform attributeName="transform" type="translate" dur="3.0303030303030307s" repeatCount="indefinite" keyTimes="0;0.5;1" calcMode="spline" keySplines="0.5 0 0.5 1;0.5 0 0.5 1" values="-26.515993706981217;0;-26.515993706981217" begin="-14.285714285714288s"></animateTransform>
</path><path d="M749.151416215715 329.5 L760.8718711892108 329.5 A15 15 0 0 1 760.8718711892108 360.5 L749.151416215715 360.5 A15 15 0 0 1 749.151416215715 329.5" fill="#fff">
  <animateTransform attributeName="transform" type="translate" dur="3.0303030303030307s" repeatCount="indefinite" keyTimes="0;1" values="0;0" begin="-14.285714285714288s"></animateTransform>
  <animate attributeName="opacity" dur="3.0303030303030307s" repeatCount="indefinite" keyTimes="0;0.3;1" values="1;1;0" begin="-14.285714285714288s"></animate>
</path><path d="M1666 359.5 L698.4169418589167 359.5 A15 15 0 0 1 698.4169418589167 390.5 L1666 390.5" fill="#fff">
  <animateTransform attributeName="transform" type="translate" dur="3.0303030303030307s" repeatCount="indefinite" keyTimes="0;0.5;1" calcMode="spline" keySplines="0.5 0 0.5 1;0.5 0 0.5 1" values="26.599766747350095;0;26.599766747350095" begin="-15.584415584415584s"></animateTransform>
</path><path d="M1435.4768408097516 359.5 L1474.9536816195032 359.5 A15 15 0 0 1 1474.9536816195032 390.5 L1435.4768408097516 390.5 A15 15 0 0 1 1435.4768408097516 359.5" fill="#000">
  <animateTransform attributeName="transform" type="translate" dur="3.0303030303030307s" repeatCount="indefinite" keyTimes="0;1" values="0;-1125.9285341160326" begin="-15.584415584415584s"></animateTransform>
  <animate attributeName="opacity" dur="3.0303030303030307s" repeatCount="indefinite" keyTimes="0;0.3;1" values="1;1;0" begin="-15.584415584415584s"></animate>
</path><path d="M1666 389.5 L667.5380420195459 389.5 A15 15 0 0 0 667.5380420195459 420.5 L1666 420.5" fill="#fff">
  <animateTransform attributeName="transform" type="translate" dur="3.0303030303030307s" repeatCount="indefinite" keyTimes="0;0.5;1" calcMode="spline" keySplines="0.5 0 0.5 1;0.5 0 0.5 1" values="-45.43943061597115;0;-45.43943061597115" begin="-16.883116883116884s"></animateTransform>
</path><path d="M740.1274983951535 389.5 L758.4912017987745 389.5 A15 15 0 0 1 758.4912017987745 420.5 L740.1274983951535 420.5 A15 15 0 0 1 740.1274983951535 389.5" fill="#fff">
  <animateTransform attributeName="transform" type="translate" dur="9.090909090909092s" repeatCount="indefinite" keyTimes="0;1" values="0;0" begin="-16.883116883116884s"></animateTransform>
  <animate attributeName="opacity" dur="9.090909090909092s" repeatCount="indefinite" keyTimes="0;0.3;1" values="1;1;0" begin="-16.883116883116884s"></animate>
</path><path d="M1666 419.5 L709.4669680240492 419.5 A15 15 0 0 1 709.4669680240492 450.5 L1666 450.5" fill="#fff">
  <animateTransform attributeName="transform" type="translate" dur="4.545454545454546s" repeatCount="indefinite" keyTimes="0;0.5;1" calcMode="spline" keySplines="0.5 0 0.5 1;0.5 0 0.5 1" values="30.068826849675556;0;30.068826849675556" begin="-18.181818181818183s"></animateTransform>
</path><path d="M1424.1855703111028 419.5 L1452.3711406222055 419.5 A15 15 0 0 1 1452.3711406222055 450.5 L1424.1855703111028 450.5 A15 15 0 0 1 1424.1855703111028 419.5" fill="#000">
  <animateTransform attributeName="transform" type="translate" dur="9.090909090909092s" repeatCount="indefinite" keyTimes="0;1" values="0;-1477.3108247449454" begin="-18.181818181818183s"></animateTransform>
  <animate attributeName="opacity" dur="9.090909090909092s" repeatCount="indefinite" keyTimes="0;0.3;1" values="1;1;0" begin="-18.181818181818183s"></animate>
</path><path d="M1666 449.5 L649.1809476929785 449.5 A15 15 0 0 0 649.1809476929785 480.5 L1666 480.5" fill="#fff">
  <animateTransform attributeName="transform" type="translate" dur="3.0303030303030307s" repeatCount="indefinite" keyTimes="0;0.5;1" calcMode="spline" keySplines="0.5 0 0.5 1;0.5 0 0.5 1" values="-44.06138267254812;0;-44.06138267254812" begin="-19.480519480519483s"></animateTransform>
</path><path d="M780.2716520175683 449.5 L796.3602143222295 449.5 A15 15 0 0 1 796.3602143222295 480.5 L780.2716520175683 480.5 A15 15 0 0 1 780.2716520175683 449.5" fill="#fff">
  <animateTransform attributeName="transform" type="translate" dur="4.545454545454546s" repeatCount="indefinite" keyTimes="0;1" values="0;0" begin="-19.480519480519483s"></animateTransform>
  <animate attributeName="opacity" dur="4.545454545454546s" repeatCount="indefinite" keyTimes="0;0.3;1" values="1;1;0" begin="-19.480519480519483s"></animate>
</path><path d="M1666 479.5 L694.6022994449721 479.5 A15 15 0 0 1 694.6022994449721 510.5 L1666 510.5" fill="#fff">
  <animateTransform attributeName="transform" type="translate" dur="9.090909090909092s" repeatCount="indefinite" keyTimes="0;0.5;1" calcMode="spline" keySplines="0.5 0 0.5 1;0.5 0 0.5 1" values="26.90134776094151;0;26.90134776094151" begin="-20.77922077922078s"></animateTransform>
</path><path d="M1434.6508456410513 479.5 L1473.3016912821026 479.5 A15 15 0 0 1 1473.3016912821026 510.5 L1434.6508456410513 510.5 A15 15 0 0 1 1434.6508456410513 479.5" fill="#000">
  <animateTransform attributeName="transform" type="translate" dur="9.090909090909092s" repeatCount="indefinite" keyTimes="0;1" values="0;-1676.052174411238" begin="-20.77922077922078s"></animateTransform>
  <animate attributeName="opacity" dur="9.090909090909092s" repeatCount="indefinite" keyTimes="0;0.3;1" values="1;1;0" begin="-20.77922077922078s"></animate>
</path><path d="M1666 509.5 L647.5883989094971 509.5 A15 15 0 0 0 647.5883989094971 540.5 L1666 540.5" fill="#fff">
  <animateTransform attributeName="transform" type="translate" dur="3.0303030303030307s" repeatCount="indefinite" keyTimes="0;0.5;1" calcMode="spline" keySplines="0.5 0 0.5 1;0.5 0 0.5 1" values="-27.87400517152223;0;-27.87400517152223" begin="-22.077922077922082s"></animateTransform>
</path><path d="M781.7339470407626 509.5 L808.4491021386361 509.5 A15 15 0 0 1 808.4491021386361 540.5 L781.7339470407626 540.5 A15 15 0 0 1 781.7339470407626 509.5" fill="#fff">
  <animateTransform attributeName="transform" type="translate" dur="4.545454545454546s" repeatCount="indefinite" keyTimes="0;1" values="0;0" begin="-22.077922077922082s"></animateTransform>
  <animate attributeName="opacity" dur="4.545454545454546s" repeatCount="indefinite" keyTimes="0;0.3;1" values="1;1;0" begin="-22.077922077922082s"></animate>
</path><path d="M1666 539.5 L682.7184641209976 539.5 A15 15 0 0 1 682.7184641209976 570.5 L1666 570.5" fill="#fff">
  <animateTransform attributeName="transform" type="translate" dur="9.090909090909092s" repeatCount="indefinite" keyTimes="0;0.5;1" calcMode="spline" keySplines="0.5 0 0.5 1;0.5 0 0.5 1" values="48.59848989783744;0;48.59848989783744" begin="-23.376623376623375s"></animateTransform>
</path><path d="M1428.5498465089702 539.5 L1461.0996930179404 539.5 A15 15 0 0 1 1461.0996930179404 570.5 L1428.5498465089702 570.5 A15 15 0 0 1 1428.5498465089702 539.5" fill="#000">
  <animateTransform attributeName="transform" type="translate" dur="4.545454545454546s" repeatCount="indefinite" keyTimes="0;1" values="0;-1516.2134498805751" begin="-23.376623376623375s"></animateTransform>
  <animate attributeName="opacity" dur="4.545454545454546s" repeatCount="indefinite" keyTimes="0;0.3;1" values="1;1;0" begin="-23.376623376623375s"></animate>
</path><path d="M1666 569.5 L639.1153425313964 569.5 A15 15 0 0 0 639.1153425313964 600.5 L1666 600.5" fill="#fff">
  <animateTransform attributeName="transform" type="translate" dur="3.0303030303030307s" repeatCount="indefinite" keyTimes="0;0.5;1" calcMode="spline" keySplines="0.5 0 0.5 1;0.5 0 0.5 1" values="-26.77206245672804;0;-26.77206245672804" begin="-24.675324675324678s"></animateTransform>
</path><path d="M787.2305435938604 569.5 L822.8237468683405 569.5 A15 15 0 0 1 822.8237468683405 600.5 L787.2305435938604 600.5 A15 15 0 0 1 787.2305435938604 569.5" fill="#fff">
  <animateTransform attributeName="transform" type="translate" dur="4.545454545454546s" repeatCount="indefinite" keyTimes="0;1" values="0;0" begin="-24.675324675324678s"></animateTransform>
  <animate attributeName="opacity" dur="4.545454545454546s" repeatCount="indefinite" keyTimes="0;0.3;1" values="1;1;0" begin="-24.675324675324678s"></animate>
</path><path d="M1666 599.5 L683.2718929257877 599.5 A15 15 0 0 1 683.2718929257877 630.5 L1666 630.5" fill="#fff">
  <animateTransform attributeName="transform" type="translate" dur="3.0303030303030307s" repeatCount="indefinite" keyTimes="0;0.5;1" calcMode="spline" keySplines="0.5 0 0.5 1;0.5 0 0.5 1" values="33.39388516926384;0;33.39388516926384" begin="-25.974025974025974s"></animateTransform>
</path><path d="M1426.3370112984264 599.5 L1456.6740225968529 599.5 A15 15 0 0 1 1456.6740225968529 630.5 L1426.3370112984264 630.5 A15 15 0 0 1 1426.3370112984264 599.5" fill="#000">
  <animateTransform attributeName="transform" type="translate" dur="4.545454545454546s" repeatCount="indefinite" keyTimes="0;1" values="0;-1125.4880486868633" begin="-25.974025974025974s"></animateTransform>
  <animate attributeName="opacity" dur="4.545454545454546s" repeatCount="indefinite" keyTimes="0;0.3;1" values="1;1;0" begin="-25.974025974025974s"></animate>
</path>    </g>
  </mask>
</defs>
<rect x="0" y="0" width="1366" height="625" fill="url(#ldbk-photon-yvhv8jrcez-lg)" mask="url(#ldbk-photon-yvhv8jrcez-mask)"></rect></g>
</svg>